<svg width="108" height="81" viewBox="0 0 108 81" fill="none" xmlns="http://www.w3.org/2000/svg">
<rect width="108" height="81" rx="15" fill="white"/>
<rect width="10.2312" height="22.0352" transform="matrix(0.899398 0.437131 -0.439613 0.898187 46.3013 24.749)" fill="#002F34"/>
<rect width="13.8367" height="19.6109" transform="matrix(0.899398 0.437131 -0.439613 0.898187 74.6221 37.6685)" fill="#002F34"/>
<rect width="21.932" height="62.0963" rx="10.966" transform="matrix(0.899398 0.437131 -0.439613 0.898187 31.2983 6)" fill="#002F34"/>
<rect width="9.9992" height="22.0352" rx="4.9996" transform="matrix(0.899398 0.437131 -0.439613 0.898187 52.8662 11.6245)" fill="white"/>
<rect width="14.0324" height="22.045" rx="7.01618" transform="matrix(0.899398 0.437131 -0.439613 0.898187 81.7695 24.749)" fill="white"/>
<rect width="13.4522" height="22.0352" rx="6.72611" transform="matrix(0.899398 0.437131 -0.439613 0.898187 69.5474 49.9279)" fill="white"/>
<path d="M38.6031 40.7031C39.8484 38.1588 42.9233 37.1 45.471 38.3383V38.3383C48.0187 39.5765 49.0746 42.6429 47.8293 45.1872L40.3971 60.3721L31.171 55.8879L38.6031 40.7031Z" fill="white"/>
<rect width="21.932" height="62.0963" rx="10.966" transform="matrix(0.899398 0.437131 -0.439613 0.898187 66.7344 6)" fill="#002F34"/>
<rect width="21.6225" height="21.5759" rx="10.788" transform="matrix(0.899398 0.437131 -0.439613 0.898187 84.6709 42.5605)" fill="#002F34"/>
</svg>
