<svg width="107" height="75" viewBox="0 0 107 75" fill="none" xmlns="http://www.w3.org/2000/svg">
<rect x="45.2974" y="20" width="10.883" height="23.4896" transform="rotate(26 45.2974 20)" fill="#5511D6"/>
<rect x="75.4023" y="33.7815" width="14.7182" height="20.9053" transform="rotate(26 75.4023 33.7815)" fill="#5511D6"/>
<rect x="29.3496" width="23.3292" height="66.1949" rx="11.6646" transform="rotate(26 29.3496 0)" fill="#5511D6"/>
<rect x="52.2759" y="6" width="10.6362" height="23.4896" rx="5.31811" transform="rotate(26 52.2759 6)" fill="white"/>
<rect x="83" y="20" width="14.9263" height="23.5" rx="7.46315" transform="rotate(26 83 20)" fill="white"/>
<rect x="70.0078" y="46.8589" width="14.3092" height="23.4896" rx="7.1546" transform="rotate(26 70.0078 46.8589)" fill="white"/>
<path d="M37.1195 37.0081C38.4404 34.2998 41.7067 33.1752 44.4149 34.4961C47.1231 35.8169 48.2478 39.0832 46.9269 41.7914L39.0214 58L29.2141 53.2167L37.1195 37.0081Z" fill="white"/>
<rect x="67.0181" width="23.3292" height="66.1949" rx="11.6646" transform="rotate(26 67.0181 0)" fill="#5511D6"/>
<rect x="86.084" y="39" width="23" height="23" rx="11.5" transform="rotate(26 86.084 39)" fill="#5511D6"/>
</svg>
